<svg width="40" height="861" viewBox="0 0 40 861" fill="none" xmlns="http://www.w3.org/2000/svg">
<path d="M19 729L27.5184 713.919L10.1986 714.082L19 729ZM11.5001 93.0142L17.3727 715.515L20.3726 715.486L14.4999 92.9858L11.5001 93.0142Z" fill="black"/>
<path d="M19 729L27.5184 713.919L10.1986 714.082L19 729ZM11.5001 93.0142L17.3727 715.515L20.3726 715.486L14.4999 92.9858L11.5001 93.0142Z" fill="black" fill-opacity="0.2"/>
<path d="M6.04818 2.74316L24.2254 2.33254L24.3641 8.47444C24.3962 9.89453 24.1799 11.0657 23.7153 11.9879C23.2566 12.9099 22.6121 13.5994 21.7818 14.0562C20.9514 14.513 20.0008 14.7536 18.9298 14.7778C17.8588 14.8019 16.9042 14.6045 16.0659 14.1853C15.2276 13.7662 14.5616 13.1093 14.0678 12.2147C13.5799 11.3199 13.32 10.1684 13.2882 8.76016L13.1759 3.78984L15.164 3.74493L15.2747 8.64425C15.2966 9.61464 15.4563 10.3925 15.7537 10.9778C16.0512 11.569 16.4633 11.9918 16.99 12.2463C17.5228 12.5066 18.1531 12.6286 18.8809 12.6121C19.6087 12.5957 20.2417 12.4452 20.7799 12.1607C21.3181 11.8762 21.7284 11.4319 22.0108 10.8275C22.299 10.2231 22.4321 9.42977 22.4099 8.44754L22.3225 4.57779L6.09791 4.9443L6.04818 2.74316ZM14.407 11.1148L6.34251 15.7725L6.28477 13.2163L14.3509 8.62959L14.407 11.1148ZM6.40933 18.7303L24.5865 18.3197L24.8343 29.2899L22.8817 29.334L22.6836 20.5649L16.5417 20.7037L16.727 28.9047L14.7743 28.9488L14.5891 20.7478L8.41168 20.8873L8.61298 29.7984L6.66035 29.8425L6.40933 18.7303ZM20.6042 43.3006C21.5012 43.1737 22.1896 42.726 22.6696 41.9574C23.1495 41.1888 23.377 40.2542 23.3522 39.1536C23.334 38.3489 23.1879 37.6477 22.9139 37.0501C22.6401 36.4583 22.2715 35.999 21.8083 35.672C21.3452 35.3509 20.8237 35.197 20.2438 35.2101C19.7586 35.221 19.3441 35.3458 19.0002 35.5845C18.6624 35.8289 18.3822 36.1372 18.1597 36.5092C17.9432 36.8812 17.7655 37.27 17.6266 37.6757C17.4937 38.0813 17.3867 38.4537 17.3055 38.7929L16.8502 40.6503C16.7366 41.1265 16.5769 41.657 16.3711 42.2418C16.1654 42.8325 15.8792 43.3984 15.5126 43.9395C15.152 44.4864 14.6827 44.941 14.1048 45.3033C13.5269 45.6657 12.8119 45.8565 11.9599 45.8757C10.9776 45.8979 10.0843 45.6606 9.27976 45.1637C8.47538 44.6727 7.82837 43.9414 7.33873 42.9697C6.84923 42.004 6.58871 40.8229 6.55716 39.4265C6.52776 38.1247 6.71235 36.9928 7.11094 36.0306C7.50967 35.0744 8.07861 34.3156 8.81778 33.7543C9.55708 33.1989 10.423 32.8744 11.4154 32.781L11.4668 35.0531C10.7817 35.1278 10.2189 35.3714 9.77828 35.7839C9.34372 36.2022 9.024 36.7245 8.8191 37.3507C8.62026 37.9827 8.52899 38.6597 8.54529 39.3816C8.56427 40.2218 8.71741 40.9731 9.0047 41.6356C9.2979 42.298 9.69447 42.8188 10.1944 43.1983C10.7003 43.5776 11.2845 43.7597 11.9473 43.7448C12.5508 43.7311 13.0381 43.5514 13.4092 43.2056C13.7802 42.8598 14.0779 42.409 14.3022 41.8534C14.5264 41.2978 14.7201 40.6984 14.8831 40.0554L15.4717 37.8043C15.8479 36.375 16.4053 35.2376 17.144 34.3921C17.8826 33.5466 18.8644 33.11 20.0892 33.0823C21.1069 33.0593 22.0007 33.3144 22.7705 33.8476C23.5464 34.3866 24.1549 35.1187 24.5962 36.0441C25.0435 36.9753 25.2802 38.0208 25.3064 39.1805C25.3329 40.3521 25.1463 41.3983 24.7468 42.319C24.3532 43.2396 23.8015 43.9743 23.0916 44.5231C22.3819 45.0779 21.5688 45.3804 20.6523 45.4307L20.6042 43.3006ZM16.5419 64.7379C14.6247 64.7812 12.9601 64.4725 11.5481 63.8117C10.136 63.151 9.03765 62.2256 8.253 61.0356C7.46835 59.8457 7.05852 58.4756 7.0235 56.9253C6.98848 55.375 7.33602 53.9878 8.06614 52.7636C8.79625 51.5394 9.85171 50.5654 11.2325 49.8416C12.6133 49.1177 14.2622 48.7342 16.1794 48.6908C18.0965 48.6475 19.7611 48.9563 21.1731 49.617C22.5852 50.2778 23.6836 51.2031 24.4682 52.3931C25.2529 53.5831 25.6627 54.9532 25.6977 56.5034C25.7327 58.0537 25.3852 59.4409 24.6551 60.6651C23.925 61.8893 22.8695 62.8633 21.4887 63.5872C20.1079 64.311 18.459 64.6946 16.5419 64.7379ZM16.4937 62.6078C18.0677 62.5722 19.3901 62.2789 20.461 61.7278C21.5321 61.1826 22.3356 60.457 22.8716 59.551C23.4078 58.6509 23.6634 57.6505 23.6386 56.55C23.6137 55.4494 23.3131 54.4586 22.7367 53.5777C22.1605 52.7027 21.325 52.0142 20.2303 51.512C19.1357 51.0158 17.8014 50.7854 16.2275 50.821C14.6535 50.8565 13.331 51.1469 12.26 51.6921C11.1891 52.2431 10.3855 52.9687 9.84937 53.8689C9.31335 54.7749 9.05777 55.7782 9.08263 56.8788C9.10749 57.9793 9.40805 58.9671 9.9843 59.8421C10.5607 60.723 11.3962 61.4116 12.4908 61.9078C13.5855 62.41 14.9198 62.6433 16.4937 62.6078Z" fill="#0B0B0B"/>
<path d="M25.8442 772.067L25.7986 769.865C26.4291 769.722 26.9806 769.483 27.4532 769.147C27.9259 768.818 28.3201 768.419 28.6361 767.951C28.958 767.488 29.1961 766.977 29.3502 766.418C29.5044 765.858 29.5753 765.276 29.5628 764.673C29.54 763.572 29.2413 762.581 28.6666 761.699C28.092 760.823 27.2578 760.133 26.164 759.628C25.0704 759.13 23.7366 758.897 22.1626 758.93C20.5886 758.962 19.2655 759.25 18.1934 759.793C17.1215 760.342 16.3165 761.066 15.7787 761.965C15.2409 762.871 14.9835 763.873 15.0062 764.974C15.0187 765.577 15.1135 766.156 15.2907 766.708C15.4679 767.261 15.724 767.762 16.0588 768.211C16.3998 768.666 16.8132 769.048 17.2991 769.357C17.791 769.673 18.352 769.889 18.9819 770.006L19.0274 772.208C18.095 772.061 17.2574 771.777 16.5146 771.354C15.7718 770.931 15.1362 770.4 14.608 769.759C14.0856 769.119 13.6829 768.396 13.3999 767.591C13.1169 766.792 12.966 765.934 12.947 765.017C12.9149 763.466 13.2651 762.08 13.9976 760.857C14.73 759.634 15.7873 758.662 17.1695 757.941C18.5516 757.22 20.2013 756.839 22.1185 756.8C24.0357 756.76 25.6997 757.072 27.1105 757.735C28.5213 758.399 29.6179 759.326 30.4003 760.518C31.1827 761.709 31.5899 763.08 31.622 764.63C31.641 765.547 31.5256 766.411 31.276 767.221C31.0265 768.038 30.6511 768.776 30.1497 769.438C29.6543 770.099 29.0443 770.657 28.3196 771.11C27.6008 771.563 26.7757 771.882 25.8442 772.067ZM13.4358 776.628L13.3881 774.32L31.7041 780.619L31.7511 782.891L13.7113 789.942L13.6635 787.634L28.8533 781.885L28.8503 781.743L13.4358 776.628ZM20.5542 777.333L20.7467 786.635L18.7939 786.675L18.6015 777.373L20.5542 777.333ZM32.246 806.812L14.068 807.188L14.024 805.057L28.0916 794.857L28.0879 794.679L13.8154 794.974L13.7698 792.773L31.9478 792.397L31.9918 794.527L17.8895 804.764L17.8931 804.942L32.2012 804.646L32.246 806.812ZM14.1746 812.338L14.1268 810.03L32.4428 816.329L32.4899 818.601L14.45 825.652L14.4023 823.344L29.592 817.595L29.5891 817.453L14.1746 812.338ZM21.293 813.043L21.4854 822.345L19.5327 822.385L19.3403 813.084L21.293 813.043ZM14.6246 834.093L14.5086 828.483L32.6865 828.107L32.8077 833.965C32.8442 835.729 32.5115 837.245 31.8096 838.515C31.1136 839.784 30.095 840.767 28.7538 841.464C27.4185 842.16 25.81 842.528 23.9283 842.567C22.0348 842.606 20.3976 842.303 19.0167 841.656C17.6418 841.01 16.5741 840.049 15.8137 838.775C15.0592 837.5 14.6628 835.939 14.6246 834.093ZM16.5068 830.644L16.5744 833.91C16.6055 835.413 16.9212 836.653 17.5215 837.629C18.1219 838.605 18.9626 839.325 20.0436 839.788C21.1247 840.251 22.4049 840.467 23.8842 840.437C25.3517 840.406 26.6101 840.141 27.6594 839.639C28.7146 839.138 29.5164 838.405 30.0647 837.441C30.619 836.476 30.8814 835.284 30.852 833.864L30.7793 830.349L16.5068 830.644ZM14.878 846.339L14.8302 844.032L33.1462 850.33L33.1932 852.603L15.1534 859.653L15.1057 857.346L30.2954 851.597L30.2925 851.455L14.878 846.339ZM21.9964 847.045L22.1888 856.347L20.2361 856.387L20.0436 847.085L21.9964 847.045Z" fill="#0C0C0C"/>
</svg>
